<svg width="149" height="164" viewBox="0 0 149 164" fill="none" xmlns="http://www.w3.org/2000/svg">
<rect x="136.057" y="150.747" width="17.4755" height="64.077" rx="8.73777" transform="rotate(135 136.057 150.747)" fill="url(#paint0_linear_179_703)"></rect>
<g filter="url(#filter0_f_179_703)">
<rect x="118.885" y="120.484" width="81.7739" height="90.7691" rx="1.06126" transform="rotate(-180 118.885 120.484)" fill="url(#paint1_linear_179_703)"></rect>
</g>
<g filter="url(#filter1_d_179_703)" data-figma-bg-blur-radius="8.49007">
<circle cx="60.9169" cy="82.1417" r="52.4266" fill="url(#paint2_linear_179_703)" shape-rendering="crispEdges"></circle>
<circle cx="60.9169" cy="82.1417" r="51.3654" stroke="url(#paint3_linear_179_703)" stroke-width="2.12252" shape-rendering="crispEdges"></circle>
</g>
<g filter="url(#filter2_di_179_703)">
<path d="M62.6416 81.3036C62.6416 81.5381 62.8317 81.7281 63.0661 81.7281H73.4671C73.7015 81.7281 73.8916 81.9182 73.8916 82.1527V83.4267C73.8916 83.6611 73.7015 83.8512 73.4671 83.8512H63.0661C62.8317 83.8512 62.6416 84.0413 62.6416 84.2757V94.6904C62.6416 94.9248 62.4515 95.1149 62.2171 95.1149H60.9431C60.7086 95.1149 60.5186 94.9248 60.5186 94.6904V84.2757C60.5186 84.0413 60.3285 83.8512 60.0941 83.8512H49.6921C49.4576 83.8512 49.2676 83.6611 49.2676 83.4267V82.1527C49.2676 81.9182 49.4576 81.7281 49.6921 81.7281H60.0941C60.3285 81.7281 60.5186 81.5381 60.5186 81.3036V70.9153C60.5186 70.6809 60.7086 70.4908 60.9431 70.4908H62.2171C62.4515 70.4908 62.6416 70.6809 62.6416 70.9153V81.3036Z" fill="url(#paint4_linear_179_703)" shape-rendering="crispEdges"></path>
</g>
<defs>
<filter id="filter0_f_179_703" x="7.39609" y="-2.47955e-05" width="141.204" height="150.2" filterUnits="userSpaceOnUse" color-interpolation-filters="sRGB">
<feFlood flood-opacity="0" result="BackgroundImageFix"></feFlood>
<feBlend mode="normal" in="SourceGraphic" in2="BackgroundImageFix" result="shape"></feBlend>
<feGaussianBlur stdDeviation="14.8576" result="effect1_foregroundBlur_179_703"></feGaussianBlur>
</filter>
<filter id="filter1_d_179_703" x="0.000167847" y="21.225" width="121.834" height="130.324" filterUnits="userSpaceOnUse" color-interpolation-filters="sRGB">
<feFlood flood-opacity="0" result="BackgroundImageFix"></feFlood>
<feColorMatrix in="SourceAlpha" type="matrix" values="0 0 0 0 0 0 0 0 0 0 0 0 0 0 0 0 0 0 127 0" result="hardAlpha"></feColorMatrix>
<feOffset dy="8.49007"></feOffset>
<feGaussianBlur stdDeviation="4.24503"></feGaussianBlur>
<feComposite in2="hardAlpha" operator="out"></feComposite>
<feColorMatrix type="matrix" values="0 0 0 0 0 0 0 0 0 0 0 0 0 0 0 0 0 0 0.25 0"></feColorMatrix>
<feBlend mode="normal" in2="BackgroundImageFix" result="effect1_dropShadow_179_703"></feBlend>
<feBlend mode="normal" in="SourceGraphic" in2="effect1_dropShadow_179_703" result="shape"></feBlend>
</filter>
<clipPath id="bgblur_0_179_703_clip_path" transform="translate(-0.000167847 -21.225)"><circle cx="60.9169" cy="82.1417" r="52.4266"></circle>
</clipPath><filter id="filter2_di_179_703" x="46.0838" y="69.4296" width="30.9926" height="34.1753" filterUnits="userSpaceOnUse" color-interpolation-filters="sRGB">
<feFlood flood-opacity="0" result="BackgroundImageFix"></feFlood>
<feColorMatrix in="SourceAlpha" type="matrix" values="0 0 0 0 0 0 0 0 0 0 0 0 0 0 0 0 0 0 127 0" result="hardAlpha"></feColorMatrix>
<feOffset dy="2.12252"></feOffset>
<feGaussianBlur stdDeviation="1.59189"></feGaussianBlur>
<feComposite in2="hardAlpha" operator="out"></feComposite>
<feColorMatrix type="matrix" values="0 0 0 0 0 0 0 0 0 0 0 0 0 0 0 0 0 0 0.25 0"></feColorMatrix>
<feBlend mode="normal" in2="BackgroundImageFix" result="effect1_dropShadow_179_703"></feBlend>
<feBlend mode="normal" in="SourceGraphic" in2="effect1_dropShadow_179_703" result="shape"></feBlend>
<feColorMatrix in="SourceAlpha" type="matrix" values="0 0 0 0 0 0 0 0 0 0 0 0 0 0 0 0 0 0 127 0" result="hardAlpha"></feColorMatrix>
<feOffset dy="16.9801"></feOffset>
<feGaussianBlur stdDeviation="4.24503"></feGaussianBlur>
<feComposite in2="hardAlpha" operator="arithmetic" k2="-1" k3="1"></feComposite>
<feColorMatrix type="matrix" values="0 0 0 0 1 0 0 0 0 1 0 0 0 0 1 0 0 0 0.25 0"></feColorMatrix>
<feBlend mode="normal" in2="shape" result="effect2_innerShadow_179_703"></feBlend>
</filter>
<linearGradient id="paint0_linear_179_703" x1="141.832" y1="145.509" x2="158.613" y2="145.933" gradientUnits="userSpaceOnUse">
<stop stop-color="#1F50FF"></stop>
<stop offset="1" stop-color="#5CA7FF"></stop>
</linearGradient>
<linearGradient id="paint1_linear_179_703" x1="145.909" y1="113.066" x2="223.944" y2="119.566" gradientUnits="userSpaceOnUse">
<stop stop-color="#1F50FF"></stop>
<stop offset="1" stop-color="#5CA7FF"></stop>
</linearGradient>
<linearGradient id="paint2_linear_179_703" x1="-7.23776" y1="145.054" x2="113.344" y2="29.7151" gradientUnits="userSpaceOnUse">
<stop stop-color="white" stop-opacity="0.2"></stop>
<stop offset="1" stop-color="white" stop-opacity="0.5"></stop>
</linearGradient>
<linearGradient id="paint3_linear_179_703" x1="102.858" y1="145.054" x2="8.49024" y2="32.3364" gradientUnits="userSpaceOnUse">
<stop stop-color="white" stop-opacity="0"></stop>
<stop offset="1" stop-color="white"></stop>
</linearGradient>
<linearGradient id="paint4_linear_179_703" x1="45.574" y1="97.5773" x2="73.8916" y2="70.4908" gradientUnits="userSpaceOnUse">
<stop stop-color="white" stop-opacity="0.2"></stop>
<stop offset="1" stop-color="white" stop-opacity="0.5"></stop>
</linearGradient>
</defs>
</svg>